<?xml version="1.0" standalone="no"?><!DOCTYPE svg PUBLIC "-//W3C//DTD SVG 1.1//EN" "http://www.w3.org/Graphics/SVG/1.1/DTD/svg11.dtd"><svg t="1686409274742" class="icon" viewBox="0 0 1024 1024" version="1.1" xmlns="http://www.w3.org/2000/svg" p-id="1776" xmlns:xlink="http://www.w3.org/1999/xlink" width="256" height="256"><path d="M511.999795 0c282.767247 0 511.999795 229.232548 511.999795 511.999795s-229.232548 511.999795-511.999795 511.999795S0 794.767042 0 511.999795 229.232548 0 511.999795 0z" fill="#91D8F0" p-id="1777"></path><path d="M614.399754 1013.739115a509.347636 509.347636 0 0 0 194.559922-84.787167V634.879746H614.399754v378.859369z" fill="#F4F0D3" p-id="1778"></path><path d="M675.83973 819.199672l-61.439976-10.239996v-92.159963l61.439976 10.239996 133.119946-30.719988v92.159964l-133.119946 30.719987z m-61.439976 194.539443c20.991992-4.259838 41.461743-9.932796 61.439976-16.680954V634.879746h-61.439976v378.859369z" fill="#DBD8BD" p-id="1779"></path><path d="M614.399754 716.799713v92.159963l61.439976 10.239996v-92.159963z" fill="#C5C2AA" p-id="1780"></path><path d="M542.719783 378.879848v358.399857l461.813575-85.514206A512.132915 512.132915 0 0 0 1023.99959 511.999795a509.828916 509.828916 0 0 0-46.704621-213.585834L542.719783 378.879848z" fill="#E2574C" p-id="1781"></path><path d="M999.61816 355.706738a511.651635 511.651635 0 0 0-111.779795-191.283124L343.674743 270.079892l-63.477735 48.98814L542.719783 440.319824l456.898377-84.613086z" fill="#E67067" p-id="1782"></path><path d="M1010.574956 628.264709L532.479787 716.799713v51.19998l462.366535-85.616606a507.658037 507.658037 0 0 0 15.728634-54.118378z" fill="#CB4E44" p-id="1783"></path><path d="M515.112754 762.121935L285.491086 717.833953c-36.546545-7.045117-70.451172 21.084152-70.451172 58.470376v152.647619A509.490996 509.490996 0 0 0 511.999795 1023.99959c17.285113 0 34.355186-0.88064 51.19998-2.559999V820.592312a59.473896 59.473896 0 0 0-48.087021-58.470377z" fill="#E2574C" p-id="1784"></path><path d="M762.572495 502.599479c-0.79872-4.638718-6.000638-9.175036-13.055995-7.915517-6.655997 1.1776-11.857915 6.881277-13.332474 11.919355l-15.718394 55.388138-0.26624 0.0512-15.718394-49.81758c-1.474559-4.515838-6.666237-8.376317-13.332474-7.198717-7.055357 1.259519-12.257275 7.618557-13.055995 12.554235l-12.390395 76.308449-0.13312 2.28352c0 5.836798 4.259838 8.806396 9.594876 7.864316 6.799357-1.19808 9.461756-4.720638 10.393596-11.141115l7.874557-55.449578 0.256-0.0512 15.994873 52.817899c0.94208 3.031039 3.471359 7.096317 10.670076 5.816318 7.188477-1.279999 9.717756-6.236158 10.649596-9.594877l15.994873-58.490856 0.256-0.0512 7.874557 52.674539c0.93184 6.082558 3.594239 8.663037 10.393596 7.464957 5.335038-0.95232 9.594876-5.416958 9.594876-11.274236l-0.13312-2.232319-12.410875-71.925731z m81.039328-14.356474c-2.273279-5.969918-7.198717-9.758716-14.264315-8.509437-6.799357 1.20832-12.001275 7.045117-14.264314 13.557755l-26.787829 77.004769c-0.256 0.70656-0.93184 2.426879-0.93184 4.546558 0 5.324798 4.526078 8.499197 9.861116 7.557117 5.468158-0.98304 8.263677-4.392958 9.605116-8.744956l3.993599-13.066235 37.048305-6.563838 4.003838 11.765756c1.331199 3.758078 4.126718 6.184958 9.727996 5.191678 4.925438-0.8704 9.185276-5.222398 9.185277-10.403836a13.926394 13.926394 0 0 0-1.06496-4.730878l-26.111989-67.604453z m-27.06431 52.991979l12.656635-40.755184 0.26624-0.04096 12.390395 36.321265-25.31327 4.474879z m80.537568-72.703971c-5.734398 1.01376-9.994236 5.488638-9.994236 12.134395v75.44829c0 6.635517 4.259838 9.605116 9.994236 8.591356s10.004476-5.488638 10.004476-12.134395v-75.44829c0-6.645757-4.270078-9.605116-10.004476-8.591356z m76.46205 63.487974l-23.715831 4.198399v-66.672614c0-6.635517-4.270078-9.605116-10.004476-8.591356s-9.994236 5.498878-9.994236 12.134395v74.10685c0 6.645757 3.860478 10.209276 10.393596 9.062396l33.320947-5.898237c5.857278-1.04448 9.461756-6.062078 9.594876-10.465276 0.26624-4.577278-2.795519-9.072636-9.594876-7.874557z" fill="#F2B5B0" p-id="1785"></path><path d="M409.599836 269.035412c96.143322 18.544633 174.07993 117.319633 174.079931 220.600232v218.859433c0 37.386225-33.904626 65.515494-70.451172 58.480616l-229.621668-44.298222A59.463656 59.463656 0 0 1 235.519906 664.217334V422.481751c0-103.290839 77.936609-171.990971 174.07993-153.446339z" fill="#B5463D" p-id="1786"></path><path d="M409.599836 269.035412a157.880257 157.880257 0 0 0-45.721582-2.078719c4.956158 0.50176 9.943036 1.10592 15.001594 2.078719 96.143322 18.544633 174.07993 117.319633 174.079931 220.600232v218.859433a59.504616 59.504616 0 0 1-44.226542 57.610217l4.495358 0.870399c36.546545 7.045117 70.451172-21.094392 70.451172-58.480616V489.635644c0-103.290839-77.936609-202.055599-174.079931-220.600232zM236.308385 673.197811c3.727359 24.56575 22.384631 44.677102 47.298542 49.47966L513.228595 766.975693c36.546545 7.045117 70.451172-21.094392 70.451172-58.480616V601.343759l-347.371382 71.854052z" fill="#A33F37" p-id="1787"></path><path d="M583.679767 601.343759l-347.371382 71.864292a59.289576 59.289576 0 0 0 32.778227 44.421102L583.679767 652.543739v-51.19998z" fill="#BA564E" p-id="1788"></path><path d="M583.679767 489.635644c0-51.18974-19.179512-101.2326-50.18622-140.994503l-134.215627 25.497589C381.491047 377.528169 368.639853 392.908643 368.639853 410.797916v258.611096c0 23.429111 21.606391 41.062384 44.902382 36.638706L583.679767 673.720051V489.635644z" fill="#FFFFFF" p-id="1789"></path><path d="M419.839832 537.282345c0 3.440639 3.317759 6.021118 6.911997 5.355518L583.679767 512.491315v-18.268153L424.55023 524.79979a5.560318 5.560318 0 0 0-4.710398 5.355518v7.127037z m163.839935-2.099199L424.55023 565.759774a5.560318 5.560318 0 0 0-4.710398 5.355518v7.116797c0 3.440639 3.317759 6.021118 6.911997 5.355518L583.679767 553.451299v-18.268153z" fill="#EEEEEE" p-id="1790"></path><path d="M424.55023 432.639827l70.297572-12.707835c3.594239-0.65536 6.911997 1.935359 6.911997 5.355518v37.847025a5.539838 5.539838 0 0 1-4.710398 5.355518l-70.297572 12.707835c-3.594239 0.65536-6.911997-1.925119-6.911997-5.355518v-37.847025c0-2.611199 1.976319-4.863998 4.710398-5.355518z" fill="#2EA9D3" p-id="1791"></path><path d="M552.959779 708.495077a59.504616 59.504616 0 0 1-44.226542 57.610217l4.495358 0.870399c36.546545 7.045117 70.451172-21.094392 70.451172-58.480616V601.343759l-30.719988 6.359038v100.79228z" fill="#923931" p-id="1792"></path><path d="M582.788887 470.445892c-0.3072-3.327999-0.90112-6.615037-1.37216-9.932796-0.41984-3.000319-0.69632-6.031358-1.239039-9.011197-0.83968-4.567038-1.966079-9.072636-3.092479-13.588474l-1.136639-4.986878a229.549988 229.549988 0 0 0-5.089278-16.035834l-0.6656-2.088959a237.465505 237.465505 0 0 0-7.014397-17.131513l-0.19456-0.45056a244.346782 244.346782 0 0 0-29.194229-48.138221l-0.307199-0.430079-26.99263 5.130237C535.254826 392.683363 552.959779 440.596304 552.959779 489.635644v189.921204l30.719988-5.836797V489.635644c0-6.420477-0.3072-12.820475-0.89088-19.189752z" fill="#E5E5E5" p-id="1793"></path><path d="M419.839832 537.282345c0 3.440639 3.317759 6.021118 6.911997 5.355518L583.679767 512.491315v-18.268153L424.55023 524.79979a5.560318 5.560318 0 0 0-4.710398 5.355518v7.127037z m163.839935-2.099199L424.55023 565.759774a5.560318 5.560318 0 0 0-4.710398 5.355518v7.116797c0 3.440639 3.317759 6.021118 6.911997 5.355518L583.679767 553.451299v-18.268153z" fill="#EEEEEE" p-id="1794"></path><path d="M552.959779 518.389553l30.719988-5.898238v-18.268153l-30.719988 5.898238z m0 40.959983l30.719988-5.898237v-18.268153l-30.719988 5.898238z" fill="#CECECE" p-id="1795"></path><path d="M515.112754 762.121935L285.491086 717.833953a60.262376 60.262376 0 0 0-11.304956-1.08544c-31.938547 0-59.146216 26.06079-59.146216 59.555816v152.647619c6.707197 4.792318 13.537275 9.420796 20.479992 13.875195V776.304329c0-21.544951 17.346553-39.075824 38.676464-39.075824 2.457599 0 4.945918 0.23552 7.413757 0.7168l229.621669 44.287982A39.024624 39.024624 0 0 1 542.719783 820.592312v202.413999a498.8926 498.8926 0 0 0 20.479992-1.55648V820.592312a59.473896 59.473896 0 0 0-48.087021-58.470377z" fill="#CB4E44" p-id="1796"></path><path d="M365.516654 726.916829l41.267183 6.696958c7.495677 1.2288 13.055995 8.529917 13.055995 17.121273 0 10.516476-8.202237 18.606073-17.356793 17.121273l-41.256943-6.696957C353.720179 759.940816 348.159861 752.639699 348.159861 744.038102c0-10.526716 8.202237-18.616313 17.356793-17.121273z" fill="#EFC75E" p-id="1797"></path></svg>